<mxfile host="app.diagrams.net" modified="2023-06-25T10:27:41.473Z" agent="Mozilla/5.0 (Windows NT 10.0; Win64; x64) AppleWebKit/537.36 (KHTML, like Gecko) Chrome/114.0.0.0 Safari/537.36" etag="f6x5Ea01JpCnvsZO9cnb" version="21.5.0" type="github">
  <diagram name="第 1 页" id="F5DT5zTCkN7BUkbLbciH">
    <mxGraphModel dx="1434" dy="764" grid="1" gridSize="10" guides="1" tooltips="1" connect="1" arrows="1" fold="1" page="1" pageScale="1" pageWidth="827" pageHeight="1169" math="0" shadow="0">
      <root>
        <mxCell id="0" />
        <mxCell id="1" parent="0" />
        <mxCell id="qTzD-UrpqLM8nSMdx4LY-1" value="" style="whiteSpace=wrap;html=1;aspect=fixed;" vertex="1" parent="1">
          <mxGeometry x="200" y="240" width="120" height="120" as="geometry" />
        </mxCell>
        <mxCell id="qTzD-UrpqLM8nSMdx4LY-9" style="edgeStyle=orthogonalEdgeStyle;rounded=0;orthogonalLoop=1;jettySize=auto;html=1;entryX=-0.008;entryY=0.375;entryDx=0;entryDy=0;entryPerimeter=0;" edge="1" parent="1" source="qTzD-UrpqLM8nSMdx4LY-5" target="qTzD-UrpqLM8nSMdx4LY-7">
          <mxGeometry relative="1" as="geometry" />
        </mxCell>
        <mxCell id="qTzD-UrpqLM8nSMdx4LY-5" value="sonarscanner" style="rounded=0;whiteSpace=wrap;html=1;" vertex="1" parent="1">
          <mxGeometry x="210" y="270" width="100" height="30" as="geometry" />
        </mxCell>
        <mxCell id="qTzD-UrpqLM8nSMdx4LY-6" value="jenkins" style="text;html=1;strokeColor=none;fillColor=none;align=center;verticalAlign=middle;whiteSpace=wrap;rounded=0;" vertex="1" parent="1">
          <mxGeometry x="190" y="210" width="60" height="30" as="geometry" />
        </mxCell>
        <mxCell id="qTzD-UrpqLM8nSMdx4LY-7" value="" style="whiteSpace=wrap;html=1;aspect=fixed;" vertex="1" parent="1">
          <mxGeometry x="440" y="240" width="120" height="120" as="geometry" />
        </mxCell>
        <mxCell id="qTzD-UrpqLM8nSMdx4LY-10" value="sonarqube" style="text;html=1;strokeColor=none;fillColor=none;align=center;verticalAlign=middle;whiteSpace=wrap;rounded=0;" vertex="1" parent="1">
          <mxGeometry x="440" y="210" width="60" height="30" as="geometry" />
        </mxCell>
        <mxCell id="qTzD-UrpqLM8nSMdx4LY-13" value="K8S" style="rounded=1;whiteSpace=wrap;html=1;" vertex="1" parent="1">
          <mxGeometry x="200" y="380" width="360" height="40" as="geometry" />
        </mxCell>
        <mxCell id="qTzD-UrpqLM8nSMdx4LY-14" value="" style="ellipse;whiteSpace=wrap;html=1;aspect=fixed;labelBorderColor=default;strokeColor=#c32828;fillStyle=dashed;" vertex="1" parent="1">
          <mxGeometry x="460" y="350" width="85" height="85" as="geometry" />
        </mxCell>
        <mxCell id="qTzD-UrpqLM8nSMdx4LY-16" value="" style="ellipse;whiteSpace=wrap;html=1;aspect=fixed;labelBorderColor=default;strokeColor=#c32828;fillStyle=dashed;" vertex="1" parent="1">
          <mxGeometry x="235" y="240" width="85" height="85" as="geometry" />
        </mxCell>
        <mxCell id="qTzD-UrpqLM8nSMdx4LY-18" value="WEB" style="whiteSpace=wrap;html=1;aspect=fixed;" vertex="1" parent="1">
          <mxGeometry x="480" y="120" width="80" height="80" as="geometry" />
        </mxCell>
        <mxCell id="qTzD-UrpqLM8nSMdx4LY-17" value="" style="ellipse;whiteSpace=wrap;html=1;aspect=fixed;labelBorderColor=default;strokeColor=#c32828;fillStyle=dashed;" vertex="1" parent="1">
          <mxGeometry x="500" y="90" width="85" height="85" as="geometry" />
        </mxCell>
      </root>
    </mxGraphModel>
  </diagram>
</mxfile>
